# xmcd CD database file
#
# Track frame offsets:
#	150
#	15065
#	28991
#	43633
#	58098
#	71525
#	82861
#	96531
#	109978
#	125363
#	139555
#	149941
#	164160
#	175228
#	189674
#	204347
#	219050
#	231281
#
# Disc length: 3280 seconds
#
# Revision: 1
# Processed by: cddbd v1.5.2PL0 Copyright (c) Steve Scherf et al.
# Submitted via: CDex 1.70beta2
#
DISCID=060cce12
DTITLE=Jimmie Luncheford - My Blue Heaven
DYEAR=1900
DGENRE=Jazz
TTITLE0=Bird of Paradise
TTITLE1=Slumming on Park Avenue
TTITLE2=Rhyth is Our Business
TTITLE3=Unsophisticated Sue
TTITLE4=Muddy Water
TTITLE5=Ain´t She Sweet
TTITLE6=Hittin´the Bottle
TTITLE7=Harlem Shout
TTITLE8=In Dat Mornin´
TTITLE9=Margie
TTITLE10=Stratosphere
TTITLE11=Oh Boy!
TTITLE12=What is This Thing Called Swing
TTITLE13=Frisco Fog
TTITLE14=My Blue Heaven
TTITLE15=Hells Bells
TTITLE16=For Dancers Only
TTITLE17=The Best Things in Life Are Free
EXTD=
EXTT0=
EXTT1=
EXTT2=
EXTT3=
EXTT4=
EXTT5=
EXTT6=
EXTT7=
EXTT8=
EXTT9=
EXTT10=
EXTT11=
EXTT12=
EXTT13=
EXTT14=
EXTT15=
EXTT16=
EXTT17=
PLAYORDER=
